# xmcd
#
# Track frame offsets: 
#        150
#        11843
#        24467
#        35020
#        47073
#        60736
#        71609
#        83008
#        96774
#        106051
#        117760
#        128488
#        137636
#        147214
#        158777
#        168596
#        178936
#        190201
#        200779
#        210970
#        222824
#        232156
#        241640
#        251979
#        262718
#        272426
#        283951
#        295006
#        306820
#        316625
#        326173
#        338639
#
# Disc length: 4647 seconds
#
# Revision: 0
# Processed by: cddbd v1.5.2PL0 Copyright (c) Steve Scherf et al.
# Submitted via: ExactAudioCopyFreeDBPlugin 1.0
#
DISCID=cf122520
DTITLE=Bonnie Lou - Friction Heat (1953-1958)
DYEAR=1900
DGENRE=Country
TTITLE0=Tennessee Wig Walk
TTITLE1=Hand-Me-Down Heart
TTITLE2=Seven Lonely Days
TTITLE3=Just Out Of Reach (Of My Two Open Arms)
TTITLE4=No Heart At All
TTITLE5=Welcome Mat
TTITLE6=Don't Stop Kissing Me Goodnight
TTITLE7=No One
TTITLE8=Huckleberry Pie
TTITLE9=Please Don't Laugh When I Cry
TTITLE10=Two Step - Side Step
TTITLE11=Wait For Me, Darling
TTITLE12=Darling, Why?
TTITLE13=Train Whistle Blues
TTITLE14=Finger Of Suspicion
TTITLE15=Tweedle Dee
TTITLE16=Drop Me A Line
TTITLE17=Old, Faithful And True Love
TTITLE18=Miss The Love I've Been Dreaming Of
TTITLE19=The Barnyard Hop
TTITLE20=Daddy-O
TTITLE21=Dancing In My Socks
TTITLE22=Little Miss Bobby Sox
TTITLE23=Bo Weevil
TTITLE24=Lonesome Lover
TTITLE25=One Track Love
TTITLE26=I Want You
TTITLE27=Kit 'n' Kaboddle
TTITLE28=Bonnie Lou and Rusty York - La Dee Dah
TTITLE29=No One Ever Lost More
TTITLE30=Have You Ever Been Lovely?
TTITLE31=Friction Heat
EXTD=
EXTT0=
EXTT1=
EXTT2=
EXTT3=
EXTT4=
EXTT5=
EXTT6=
EXTT7=
EXTT8=
EXTT9=
EXTT10=
EXTT11=
EXTT12=
EXTT13=
EXTT14=
EXTT15=
EXTT16=
EXTT17=
EXTT18=
EXTT19=
EXTT20=
EXTT21=
EXTT22=
EXTT23=
EXTT24=
EXTT25=
EXTT26=
EXTT27=
EXTT28=
EXTT29=
EXTT30=
EXTT31=
PLAYORDER=
